<svg width="77" height="40" viewBox="0 0 77 40" fill="none" xmlns="http://www.w3.org/2000/svg">
<g clip-path="url(#clip0_2718_7625)">
<path d="M55.7972 13.4574L55.0324 14.32C53.5761 14.32 47.556 14.32 47.556 14.32C47.2939 14.3503 47.3454 14.6809 47.556 14.702H54.6933L53.8371 15.6676C52.9092 15.6676 48.263 15.6676 48.263 15.6676C48.0288 15.6676 48.0524 16.0477 48.2526 16.0477H53.5001L52.6781 16.9743C52.6781 16.9743 52.5331 17.1613 52.2936 17.1613H49.4007C48.4173 17.1613 48.188 17.7548 48.3303 18.0979C48.5988 18.7388 49.1295 19.7115 47.556 19.7115C45.9918 19.7115 43.5901 19.7115 43.5901 19.7115C43.2768 20.1675 42.9595 20.6471 42.9595 20.6471C42.9423 20.8961 43.095 21.9327 42.0271 21.9735C41.1819 22.0091 40.8659 21.3965 41.3688 20.672C41.3688 20.672 42.5472 18.5852 42.6698 18.3613C42.783 18.1407 42.887 18.0893 43.1622 18.0893H46.1024C46.7213 18.0893 46.5342 17.5393 46.3908 17.2977C46.246 17.0546 45.4348 15.6412 45.2361 15.2987C45.0345 14.957 45.0912 14.8126 45.1913 14.6111C45.2887 14.4142 45.6455 13.7865 45.7891 13.5417C45.9338 13.2992 45.9633 13.2574 46.1497 13.2451H55.7143C55.8684 13.2451 55.8962 13.3466 55.7972 13.4574ZM35.0417 20.672C35.5448 21.3965 35.2288 22.0091 34.3834 21.9735C33.3155 21.9327 33.4682 20.8961 33.4512 20.6471C33.4512 20.6471 33.1338 20.1675 32.8205 19.7115C32.8205 19.7115 30.4188 19.7115 28.8545 19.7115C27.281 19.7115 27.8117 18.7388 28.0804 18.0979C28.2225 17.7548 27.9934 17.1613 27.0098 17.1613H24.1169C23.8774 17.1613 23.7324 16.9743 23.7324 16.9743L22.9106 16.0477H28.1579C28.3581 16.0477 28.3819 15.6676 28.1475 15.6676C28.1475 15.6676 23.5013 15.6676 22.5735 15.6676L21.7172 14.702H28.8545C29.0651 14.6809 29.1166 14.3503 28.8545 14.32C28.8545 14.32 22.8344 14.32 21.3784 14.32L20.6131 13.4574C20.5143 13.3466 20.542 13.2451 20.6962 13.2451H30.2608C30.4472 13.2574 30.4767 13.2992 30.6216 13.5417C30.765 13.7865 31.1218 14.4142 31.2194 14.6111C31.3194 14.8126 31.376 14.957 31.1746 15.2987C30.9757 15.6412 30.1647 17.0546 30.0198 17.2977C29.8763 17.5393 29.6892 18.0893 30.3081 18.0893H33.2484C33.5235 18.0893 33.6277 18.1407 33.7407 18.3613C33.8633 18.5852 35.0417 20.672 35.0417 20.672ZM40.9663 14.918L38.7999 18.8447C38.7305 18.965 38.5679 19.247 38.2042 19.2498C37.8416 19.2468 37.6792 18.957 37.6094 18.8329L35.4368 14.9092C35.3221 14.7288 35.29 14.5258 35.3462 14.3375L35.3597 14.292L35.3835 14.251C35.4637 14.1131 35.6419 13.9521 35.8805 13.9521H40.5323C40.7892 13.9521 40.9813 14.131 41.0506 14.2972L41.058 14.3144L41.0637 14.3323C41.1246 14.5263 41.09 14.7344 40.9663 14.918ZM44.1126 12.3817C44.0691 12.2869 43.9294 12.1546 43.757 12.1546H32.6717C32.5005 12.1546 32.3623 12.2869 32.3149 12.3817C32.2463 12.5879 32.3149 12.7921 32.4241 12.9645L37.5027 22.1777C37.663 22.4301 37.8868 22.8652 38.2124 22.8652C38.5293 22.8652 38.7602 22.4339 38.9247 22.1777L44.0046 12.9645C44.1126 12.7921 44.181 12.5879 44.1126 12.3817ZM33.236 6.81499C33.1212 6.74721 33.0032 6.72057 32.8611 6.74165C32.8874 6.66797 32.8874 6.60997 32.8927 6.53612C32.8957 6.49532 32.8871 6.45451 32.8782 6.41455C32.8242 6.25691 32.7162 6.17614 32.5829 6.12219C33.1343 5.78076 33.9184 5.89912 34.5625 5.99321C34.5625 5.99321 34.5995 5.9986 34.6308 6.00316V6.0883C34.4784 6.1227 34.3674 6.26449 34.3252 6.44861C34.3197 6.47761 34.317 6.50509 34.317 6.5314C34.317 6.6157 34.3321 6.66847 34.3621 6.73642C34.2282 6.70388 34.0775 6.69292 33.9487 6.81769C33.7557 7.02372 33.6873 7.35352 33.7588 7.72445C33.8092 7.89896 33.9125 8.0389 34.0369 8.10432C34.2275 8.1925 34.4323 8.13248 34.5833 8.03705C34.5511 8.29906 34.2595 8.47137 34.1626 8.52094C33.9073 8.64875 33.5018 8.66628 33.1772 8.56343C32.9687 8.49363 32.7293 8.28017 32.6609 8.06419C32.7956 8.1377 32.9596 8.21003 33.1347 8.16519C33.3064 8.10112 33.4237 7.94161 33.4884 7.68972C33.5451 7.30159 33.4404 6.95763 33.236 6.81499ZM36.5023 7.1689C36.4674 6.98141 36.3693 6.85377 36.283 6.79442C36.1635 6.71231 36.0187 6.72361 35.9075 6.74317C35.9358 6.67016 35.9575 6.5926 35.9575 6.51369C35.9575 6.42787 35.9355 6.34391 35.8802 6.27326C35.8377 6.22167 35.7759 6.15861 35.6965 6.12927C35.7238 6.0647 35.7897 6.0045 35.8755 5.96252C36.1016 5.87434 36.3865 5.82831 36.6708 5.82595C36.9553 5.82342 37.2403 5.87434 37.4661 5.96252C37.5524 6.0045 37.6178 6.0647 37.6454 6.12927C37.5662 6.15861 37.5044 6.22167 37.4616 6.27326C37.4061 6.34391 37.3846 6.42787 37.3846 6.51369C37.3846 6.5926 37.4061 6.67016 37.4344 6.74317C37.3232 6.72361 37.1784 6.71231 37.0589 6.79442C36.9726 6.85377 36.8746 6.98141 36.8397 7.1689C36.7834 7.48301 36.7972 7.94431 37.1146 8.11899C37.3229 8.2183 37.5162 8.1313 37.6778 8.04429C37.6588 8.17766 37.5224 8.36212 37.4233 8.43377C37.1926 8.57675 36.9263 8.63728 36.6708 8.63677C36.4158 8.6361 36.1493 8.57675 35.9183 8.43377C35.8195 8.36212 35.683 8.17766 35.6643 8.04429C35.8259 8.1313 36.0191 8.2183 36.2274 8.11899C36.5444 7.94431 36.5585 7.48301 36.5023 7.1689ZM39.3081 8.12034C39.6253 7.94566 39.6391 7.48436 39.5831 7.17024C39.5477 6.98275 39.4498 6.85512 39.3635 6.79577C39.2444 6.71366 39.0994 6.72496 38.988 6.74451C39.0162 6.67134 39.0381 6.59395 39.0381 6.51504C39.0381 6.42922 39.0162 6.34526 38.9609 6.27461C38.9183 6.22302 38.8564 6.15996 38.7768 6.13062C38.8045 6.06588 38.8704 6.00585 38.9563 5.96387C39.182 5.87569 39.4672 5.82966 39.7517 5.82713C40.036 5.82477 40.321 5.87569 40.5468 5.96387C40.6328 6.00585 40.6985 6.06588 40.7263 6.13062C40.6466 6.15996 40.5848 6.22302 40.5423 6.27461C40.487 6.34526 40.4649 6.42922 40.4649 6.51504C40.4649 6.59395 40.487 6.67134 40.515 6.74451C40.4036 6.72496 40.2588 6.71366 40.1397 6.79577C40.0532 6.85512 39.9551 6.98275 39.9202 7.17024C39.8638 7.48436 39.8781 7.94566 40.1949 8.12034C40.4034 8.21964 40.5966 8.13265 40.7585 8.04564C40.7395 8.17901 40.6031 8.3633 40.504 8.43512C40.273 8.5781 40.007 8.63863 39.7517 8.63796C39.4962 8.63728 39.2302 8.5781 38.9992 8.43512C38.9 8.3633 38.7637 8.17901 38.7447 8.04564C38.9066 8.13265 39.0998 8.21964 39.3081 8.12034ZM41.7915 6.00316C41.8227 5.9986 41.8596 5.99321 41.8596 5.99321C42.5037 5.89912 43.288 5.78076 43.8392 6.12219C43.7059 6.17614 43.5981 6.25691 43.544 6.41455C43.5352 6.45451 43.5266 6.49532 43.5296 6.53612C43.5349 6.60997 43.5349 6.66797 43.5612 6.74165C43.4189 6.72057 43.3011 6.74721 43.1862 6.81499C42.9817 6.95763 42.8771 7.30159 42.9337 7.68972C42.9986 7.94161 43.1157 8.10112 43.2876 8.16519C43.4627 8.21003 43.6267 8.1377 43.7614 8.06419C43.6928 8.28017 43.4535 8.49363 43.2451 8.56343C42.9205 8.66628 42.515 8.64875 42.2595 8.52094C42.1628 8.47137 41.8712 8.29906 41.8389 8.03705C41.99 8.13248 42.1946 8.1925 42.3853 8.10432C42.5098 8.0389 42.6131 7.89896 42.6635 7.72445C42.735 7.35352 42.6664 7.02372 42.4736 6.81769C42.3448 6.69292 42.1941 6.70388 42.0602 6.73642C42.0902 6.66847 42.1052 6.6157 42.1052 6.5314C42.1052 6.50509 42.1026 6.47761 42.0969 6.44861C42.0548 6.26449 41.9435 6.1227 41.7915 6.0883V6.00316ZM43.7609 10.5221L44.728 6.51639C44.7108 6.20953 44.6093 5.92256 44.4421 5.68398C43.697 4.72243 42.1893 5.11832 41.2097 5.3955C40.5804 4.86406 39.6551 5.04446 38.9474 5.22099C38.8638 5.2419 38.7772 5.22454 38.7457 5.15355C38.7195 5.08476 38.7581 5.01428 38.7903 4.98984C39.0189 4.81651 39.167 4.54303 39.167 4.23431C39.167 3.79847 38.8727 3.43226 38.4723 3.32115V2.44625H39.0726V1.94701H38.4723V1.37004H37.9613V1.94701H37.3637V2.44625H37.9613V3.32232C37.5632 3.43462 37.271 3.79999 37.271 4.23431C37.271 4.54859 37.4243 4.82646 37.6599 4.99911C37.6923 5.02339 37.7107 5.09454 37.6923 5.14984C37.6606 5.22099 37.5878 5.24359 37.5046 5.22099C36.8034 5.03131 35.8482 4.86001 35.2188 5.39145C34.2391 5.11426 32.7315 4.71838 31.9863 5.67994C31.8194 5.91868 31.7178 6.20565 31.7006 6.51251L32.6683 10.5221H43.7609Z" fill="#FCD213"/>
<path d="M41.7915 6.00324C41.8227 5.99869 41.8596 5.99329 41.8596 5.99329C42.5037 5.89921 43.288 5.78085 43.8392 6.12228C43.7059 6.17623 43.5981 6.25699 43.544 6.41464C43.5352 6.4546 43.5266 6.4954 43.5296 6.5362C43.5349 6.61005 43.5349 6.66805 43.5612 6.74173C43.4189 6.72066 43.3011 6.7473 43.1862 6.81508C42.9817 6.95772 42.8771 7.30167 42.9337 7.6898C42.9986 7.9417 43.1157 8.1012 43.2876 8.16527C43.4627 8.21012 43.6267 8.13779 43.7614 8.06428C43.6928 8.28026 43.4535 8.49372 43.2451 8.56352C42.9205 8.66637 42.515 8.64883 42.2595 8.52103C42.1628 8.47146 41.8712 8.29914 41.8389 8.03713C41.99 8.13256 42.1946 8.19259 42.3853 8.10441C42.5098 8.03899 42.6131 7.89904 42.6635 7.72454C42.735 7.3536 42.6664 7.02381 42.4736 6.81777C42.3448 6.69301 42.1941 6.70397 42.0602 6.73651C42.0902 6.66856 42.1052 6.61579 42.1052 6.53148C42.1052 6.50518 42.1026 6.4777 42.0969 6.4487C42.0548 6.26458 41.9435 6.12278 41.7915 6.08839V6.00324ZM41.4706 6.29307L41.5003 6.29206C41.5014 6.29206 41.5999 6.29324 41.67 6.35428C41.7302 6.403 41.7615 6.4777 41.7691 6.55795C41.7778 6.67025 41.7076 6.76753 41.6395 6.86178C41.5648 6.9653 41.4595 7.09581 41.5446 7.2022C41.6378 7.3182 41.7834 7.22395 41.8844 7.14234C41.956 7.08417 42.0318 7.02567 42.1178 7.02044C42.1724 7.01521 42.2461 7.02735 42.2791 7.07102C42.3805 7.22681 42.4041 7.47078 42.3387 7.6753C42.3268 7.71071 42.2772 7.80226 42.2069 7.81879C42.1026 7.84812 42.0141 7.78776 41.9211 7.73347C41.7949 7.65929 41.5684 7.57532 41.5262 7.7564C41.464 8.0228 41.5453 8.32983 41.7438 8.56031C42.1849 9.02145 42.9628 9.04691 43.4907 8.81187C43.8989 8.62995 44.0806 8.27166 44.0974 7.82823C44.0929 7.67547 43.9946 7.6544 43.9446 7.66822C43.8507 7.68593 43.7735 7.72808 43.6776 7.76753C43.5446 7.8225 43.446 7.90292 43.3308 7.79468C43.2064 7.60938 43.2502 7.26087 43.3432 7.12615C43.3985 7.04151 43.5151 7.04421 43.5738 7.06107C43.6294 7.08181 43.6962 7.12059 43.7562 7.16814C43.8603 7.25042 44.0015 7.36018 44.0909 7.21518C44.1441 7.12885 44.0353 6.98857 43.9801 6.8955C43.9326 6.81508 43.8834 6.73179 43.8699 6.64361C43.8551 6.47298 44.0054 6.38716 44.0617 6.36052C44.1605 6.31718 44.3642 6.29493 44.3642 6.29493C44.2122 5.8982 43.8222 5.64849 43.1905 5.58459C42.5263 5.54227 41.9546 5.61528 41.3905 5.79737C41.4393 5.98166 41.4752 6.12885 41.4713 6.26323L41.4706 6.29307ZM32.6609 8.06428C32.7956 8.13779 32.9596 8.21012 33.1347 8.16527C33.3064 8.1012 33.4237 7.9417 33.4884 7.6898C33.5451 7.30167 33.4404 6.95772 33.236 6.81508C33.1212 6.7473 33.0032 6.72066 32.8611 6.74173C32.8874 6.66805 32.8874 6.61005 32.8927 6.5362C32.8957 6.4954 32.8871 6.4546 32.8782 6.41464C32.8242 6.25699 32.7162 6.17623 32.5829 6.12228C33.1343 5.78085 33.9184 5.89921 34.5625 5.99329C34.5625 5.99329 34.5995 5.99869 34.6308 6.00324V6.08839C34.4784 6.12278 34.3674 6.26458 34.3252 6.4487C34.3197 6.4777 34.317 6.50518 34.317 6.53148C34.317 6.61579 34.3321 6.66856 34.3621 6.73651C34.2282 6.70397 34.0775 6.69301 33.9487 6.81777C33.7557 7.02381 33.6873 7.3536 33.7588 7.72454C33.8092 7.89904 33.9125 8.03899 34.0369 8.10441C34.2275 8.19259 34.4323 8.13256 34.5833 8.03713C34.5511 8.29914 34.2595 8.47146 34.1626 8.52103C33.9073 8.64883 33.5018 8.66637 33.1772 8.56352C32.9687 8.49372 32.7293 8.28026 32.6609 8.06428ZM34.6783 8.56031C34.8772 8.32983 34.9581 8.0228 34.8962 7.7564C34.8538 7.57532 34.6273 7.65929 34.5009 7.73347C34.408 7.78776 34.3195 7.84812 34.2154 7.81879C34.1451 7.80226 34.0954 7.71071 34.0836 7.6753C34.018 7.47078 34.0418 7.22681 34.143 7.07102C34.1761 7.02735 34.2499 7.01521 34.3043 7.02044C34.3903 7.02567 34.466 7.08417 34.5379 7.14234C34.6389 7.22395 34.7847 7.3182 34.8775 7.2022C34.9626 7.09581 34.8573 6.9653 34.7827 6.86178C34.7149 6.76753 34.6445 6.67025 34.6534 6.55795C34.6608 6.4777 34.6921 6.403 34.752 6.35428C34.8221 6.29324 34.9209 6.29206 34.9219 6.29206L34.9515 6.29307L34.9509 6.26323C34.9471 6.12885 34.9832 5.98166 35.0318 5.79737C34.4677 5.61528 33.8958 5.54227 33.2316 5.58459C32.6001 5.64849 32.2097 5.8982 32.0581 6.29493C32.0581 6.29493 32.2618 6.31718 32.3606 6.36052C32.4169 6.38716 32.567 6.47298 32.5522 6.64361C32.5391 6.73179 32.4897 6.81508 32.4422 6.8955C32.3872 6.98857 32.2783 7.12885 32.3313 7.21518C32.4204 7.36018 32.562 7.25042 32.666 7.16814C32.7261 7.12059 32.7927 7.08181 32.8485 7.06107C32.907 7.04421 33.0236 7.04151 33.0789 7.12615C33.1719 7.26087 33.2157 7.60938 33.0915 7.79468C32.9761 7.90292 32.8775 7.8225 32.7443 7.76753C32.649 7.72808 32.5716 7.68593 32.4775 7.66822C32.4277 7.6544 32.3292 7.67547 32.3247 7.82823C32.3415 8.27166 32.5232 8.62995 32.9314 8.81187C33.4595 9.04691 34.2373 9.02145 34.6783 8.56031ZM35.8755 5.96261C36.1016 5.87443 36.3865 5.8284 36.6708 5.82604C36.9553 5.82351 37.2403 5.87443 37.4661 5.96261C37.5524 6.00459 37.6178 6.06478 37.6454 6.12936C37.5662 6.1587 37.5044 6.22176 37.4616 6.27335C37.4061 6.34399 37.3845 6.42796 37.3845 6.51378C37.3845 6.59269 37.4061 6.67025 37.4344 6.74325C37.3232 6.72369 37.1784 6.7124 37.0589 6.79451C36.9726 6.85386 36.8746 6.98149 36.8397 7.16898C36.7834 7.48309 36.7972 7.9444 37.1146 8.11907C37.3229 8.21838 37.5162 8.13138 37.6778 8.04438C37.6588 8.17775 37.5224 8.3622 37.4233 8.43386C37.1926 8.57684 36.9263 8.63737 36.6708 8.63686C36.4158 8.63619 36.1493 8.57684 35.9183 8.43386C35.8195 8.3622 35.683 8.17775 35.6643 8.04438C35.8259 8.13138 36.0191 8.21838 36.2274 8.11907C36.5444 7.9444 36.5585 7.48309 36.5023 7.16898C36.4674 6.98149 36.3693 6.85386 36.283 6.79451C36.1635 6.7124 36.0187 6.72369 35.9075 6.74325C35.9358 6.67025 35.9575 6.59269 35.9575 6.51378C35.9575 6.42796 35.9355 6.34399 35.8802 6.27335C35.8377 6.22176 35.7758 6.1587 35.6965 6.12936C35.7238 6.06478 35.7897 6.00459 35.8755 5.96261ZM35.5908 6.44617C35.6579 6.59471 35.5908 6.7242 35.5035 6.85925C35.4398 6.95772 35.3245 7.07591 35.3614 7.18415C35.3794 7.23727 35.4239 7.26188 35.4654 7.27014C35.5476 7.28667 35.6363 7.21838 35.7217 7.15229C35.7738 7.11216 35.8274 7.07085 35.8736 7.05382C35.968 7.02499 36.0809 7.04961 36.1299 7.13661C36.211 7.29139 36.239 7.5652 36.1648 7.72285C36.0635 7.91118 35.9124 7.83717 35.728 7.73988C35.6382 7.69267 35.5749 7.64057 35.4841 7.63787C35.3594 7.63517 35.3215 7.83885 35.3173 7.94339C35.3014 8.30623 35.5503 8.65591 35.9176 8.82789C36.1343 8.92551 36.4032 8.97222 36.6708 8.97104C36.9384 8.97003 37.2078 8.92551 37.424 8.82789C37.7917 8.65591 38.0402 8.30623 38.0247 7.94339C38.0201 7.83885 37.9822 7.63517 37.8578 7.63787C37.767 7.64057 37.7038 7.69267 37.6136 7.73988C37.4292 7.83717 37.2785 7.91118 37.1767 7.72285C37.1028 7.5652 37.1311 7.29139 37.2116 7.13661C37.2607 7.04961 37.3739 7.02499 37.4681 7.05382C37.5145 7.07085 37.5681 7.11216 37.6198 7.15229C37.7058 7.21838 37.7939 7.28667 37.8767 7.27014C37.9178 7.26188 37.9625 7.23727 37.9807 7.18415C38.0174 7.07591 37.9023 6.95772 37.8384 6.85925C37.7511 6.7242 37.684 6.59471 37.7511 6.44617C37.8042 6.37181 37.894 6.3268 37.9977 6.32292L38.0508 6.31904C38.0001 6.04826 37.919 5.70919 37.3574 5.57987C37.2027 5.54497 36.9782 5.49911 36.6708 5.49911C36.3637 5.49911 36.1389 5.54497 35.9845 5.57987C35.4226 5.70919 35.3419 6.04826 35.291 6.31904L35.3439 6.32292C35.4475 6.3268 35.5379 6.37181 35.5908 6.44617ZM55.7972 13.4575L55.0324 14.3201C53.5761 14.3201 47.556 14.3201 47.556 14.3201C47.2939 14.3504 47.3454 14.681 47.556 14.7021H54.6933L53.8371 15.6677C52.9092 15.6677 48.2631 15.6677 48.2631 15.6677C48.0288 15.6677 48.0524 16.0478 48.2526 16.0478H53.5001L52.6781 16.9744C52.6781 16.9744 52.5331 17.1614 52.2937 17.1614H49.4007C48.4173 17.1614 48.1881 17.7549 48.3303 18.098C48.5988 18.7389 49.1295 19.7116 47.556 19.7116C45.9918 19.7116 43.5901 19.7116 43.5901 19.7116C43.2768 20.1676 42.9595 20.6471 42.9595 20.6471C42.9423 20.8962 43.095 21.9328 42.0271 21.9736C41.1819 22.0091 40.8659 21.3966 41.3688 20.6721C41.3688 20.6721 42.5472 18.5853 42.6698 18.3614C42.783 18.1408 42.887 18.0894 43.1622 18.0894H46.1024C46.7213 18.0894 46.5342 17.5394 46.3908 17.2978C46.246 17.0547 45.4348 15.6412 45.2361 15.2988C45.0345 14.957 45.0912 14.8127 45.1913 14.6112C45.2887 14.4143 45.6455 13.7866 45.7891 13.5418C45.9338 13.2993 45.9633 13.2575 46.1497 13.2452H55.7143C55.8684 13.2452 55.8962 13.3467 55.7972 13.4575ZM50.6561 25.2801H25.7791V17.5612H27.0098C27.4814 17.5612 27.6265 17.6938 27.6703 17.7856C27.7093 17.8673 27.7027 17.9694 27.6577 18.0703C27.5313 18.3632 27.3739 18.7277 27.3739 19.0813C27.3739 19.2627 27.4153 19.4413 27.5235 19.6058C27.7472 19.9459 28.1825 20.1113 28.8545 20.1113C28.8545 20.1113 32.2273 20.1113 32.6078 20.1113C32.7428 20.3115 32.9698 20.6482 33.0528 20.7711C33.0528 20.7787 33.0524 20.7861 33.0524 20.7935C33.0524 21.8085 33.495 22.3396 34.3679 22.373C34.9177 22.3963 35.3525 22.1933 35.5598 21.8164C35.7742 21.4268 35.7047 20.9267 35.3698 20.4441L34.0962 18.1789C33.8879 17.7729 33.6066 17.6898 33.2484 17.6898L30.2859 17.6881C30.2988 17.6364 30.3243 17.5674 30.3631 17.502L31.1213 16.1909L31.5199 15.4996C31.6598 15.2622 31.7109 15.072 31.7109 14.908C31.7109 14.7276 31.6492 14.5787 31.5772 14.4334C31.47 14.217 31.1002 13.5686 30.9663 13.3396L30.9605 13.3302C30.7922 13.0486 30.625 12.8618 30.3103 12.8456H25.7791V0.399296H50.6561V12.8456H46.1002C45.7855 12.8618 45.6182 13.0486 45.45 13.3302L45.4444 13.3396C45.3104 13.5686 44.9405 14.217 44.8335 14.4334C44.7613 14.5787 44.6998 14.7276 44.6998 14.908C44.6998 15.072 44.7507 15.2622 44.8908 15.4996L45.2894 16.1909L46.0474 17.502C46.0862 17.5674 46.1118 17.6364 46.1246 17.6881L43.1622 17.6898C42.8041 17.6898 42.5228 17.7729 42.3143 18.1789L41.0407 20.4441C40.7058 20.9267 40.6365 21.4268 40.8507 21.8164C41.058 22.1933 41.4929 22.3963 42.0426 22.373C42.9155 22.3396 43.3581 21.8085 43.3581 20.7935C43.3581 20.7861 43.3577 20.7787 43.3577 20.7711C43.4407 20.6482 43.6678 20.3115 43.8027 20.1113C44.1832 20.1113 47.556 20.1113 47.556 20.1113C48.2282 20.1113 48.6633 19.9459 48.887 19.6058C48.9952 19.4413 49.0366 19.2627 49.0366 19.0813C49.0366 18.7277 48.8794 18.3632 48.753 18.0703C48.7078 17.9694 48.7012 17.8673 48.7402 17.7856C48.7842 17.6938 48.9291 17.5612 49.4007 17.5612H50.6561V25.2801ZM24.1168 17.1614C23.8774 17.1614 23.7324 16.9744 23.7324 16.9744L22.9106 16.0478H28.1579C28.3581 16.0478 28.3819 15.6677 28.1475 15.6677C28.1475 15.6677 23.5013 15.6677 22.5735 15.6677L21.7172 14.7021H28.8545C29.0651 14.681 29.1166 14.3504 28.8545 14.3201C28.8545 14.3201 22.8344 14.3201 21.3784 14.3201L20.6131 13.4575C20.5143 13.3467 20.542 13.2452 20.6962 13.2452H30.2608C30.4472 13.2575 30.4767 13.2993 30.6216 13.5418C30.765 13.7866 31.1218 14.4143 31.2194 14.6112C31.3193 14.8127 31.376 14.957 31.1746 15.2988C30.9757 15.6412 30.1647 17.0547 30.0197 17.2978C29.8763 17.5394 29.6892 18.0894 30.3081 18.0894H33.2484C33.5235 18.0894 33.6277 18.1408 33.7407 18.3614C33.8633 18.5853 35.0417 20.6721 35.0417 20.6721C35.5448 21.3966 35.2288 22.0091 34.3834 21.9736C33.3155 21.9328 33.4682 20.8962 33.4512 20.6471C33.4512 20.6471 33.1338 20.1676 32.8205 19.7116C32.8205 19.7116 30.4188 19.7116 28.8545 19.7116C27.281 19.7116 27.8117 18.7389 28.0804 18.098C28.2225 17.7549 27.9934 17.1614 27.0098 17.1614H24.1168ZM56.213 13.1408C56.1304 12.956 55.944 12.8456 55.7143 12.8456H51.0564V-0.000466799H25.3795V12.8456H20.6962C20.4666 12.8456 20.2802 12.956 20.1975 13.1408C20.1693 13.2037 20.1555 13.27 20.1555 13.3369C20.1555 13.4701 20.2101 13.6058 20.3151 13.7235C20.3151 13.7235 23.4331 17.2393 23.4336 17.2396C23.4987 17.316 23.7375 17.5612 24.1168 17.5612H25.3795V25.6802H51.0564V17.5612H52.2937C52.6729 17.5612 52.9115 17.316 52.9769 17.2396C52.9772 17.2393 56.0955 13.7235 56.0955 13.7235C56.2005 13.6058 56.2552 13.4701 56.2552 13.3369C56.2552 13.27 56.2413 13.2037 56.213 13.1408ZM40.6352 14.6949L38.5074 18.559C38.4372 18.666 38.3621 18.8501 38.207 18.8501C38.0567 18.8501 37.9749 18.6674 37.9109 18.559L35.7738 14.6949C35.729 14.6244 35.7027 14.5401 35.729 14.4519C35.7528 14.4111 35.8121 14.3518 35.8805 14.3518H40.5323C40.6073 14.3518 40.6653 14.4111 40.6825 14.4519C40.7102 14.5401 40.6825 14.6244 40.6352 14.6949ZM41.058 14.3145L41.0506 14.2973C40.9813 14.131 40.7892 13.9522 40.5323 13.9522H35.8805C35.6419 13.9522 35.4637 14.1132 35.3835 14.2511L35.3597 14.2921L35.3462 14.3376C35.29 14.5259 35.3221 14.7289 35.4368 14.9093L37.6094 18.8329C37.6792 18.957 37.8416 19.2469 38.2042 19.2499C38.5679 19.247 38.7305 18.9651 38.7999 18.8448L40.9663 14.9181C41.09 14.7345 41.1246 14.5264 41.0637 14.3324L41.058 14.3145ZM44.0046 12.9646L38.9247 22.1777C38.7602 22.434 38.5293 22.8653 38.2124 22.8653C37.8868 22.8653 37.663 22.4302 37.5027 22.1777L32.4241 12.9646C32.3149 12.7921 32.2463 12.588 32.3149 12.3818C32.3623 12.287 32.5005 12.1546 32.6717 12.1546H43.757C43.9294 12.1546 44.0691 12.287 44.1126 12.3818C44.181 12.588 44.1126 12.7921 44.0046 12.9646ZM44.4918 12.2558L44.4846 12.2351L44.4756 12.2153C44.3742 11.9936 44.1059 11.7551 43.757 11.7551H32.6717C32.335 11.7551 32.0653 11.9874 31.9576 12.2032L31.9448 12.2287L31.9357 12.2558C31.8688 12.4575 31.8401 12.777 32.0759 13.1606L37.2873 22.5838C37.4343 22.8343 37.6798 23.2528 38.2031 23.2649L38.2124 23.2651L38.2215 23.2649C38.7519 23.2529 38.9965 22.8321 39.1429 22.5811L44.3541 13.1582C44.5869 12.7746 44.5582 12.4563 44.4918 12.2558ZM38.9563 5.96396C39.182 5.87577 39.4672 5.82975 39.7517 5.82722C40.036 5.82486 40.321 5.87577 40.5468 5.96396C40.6328 6.00594 40.6985 6.06596 40.7263 6.13071C40.6466 6.16004 40.5848 6.2231 40.5423 6.2747C40.487 6.34534 40.4649 6.42931 40.4649 6.51513C40.4649 6.59404 40.487 6.67143 40.515 6.7446C40.4036 6.72504 40.2588 6.71375 40.1397 6.79586C40.0532 6.85521 39.9551 6.98284 39.9202 7.17033C39.8638 7.48444 39.8781 7.94575 40.1949 8.12042C40.4034 8.21973 40.5966 8.13273 40.7585 8.04573C40.7395 8.1791 40.6031 8.36338 40.504 8.43521C40.273 8.57819 40.007 8.63872 39.7517 8.63804C39.4962 8.63737 39.2302 8.57819 38.9992 8.43521C38.9001 8.36338 38.7637 8.1791 38.7447 8.04573C38.9066 8.13273 39.0998 8.21973 39.3081 8.12042C39.6253 7.94575 39.6391 7.48444 39.5831 7.17033C39.5477 6.98284 39.4498 6.85521 39.3635 6.79586C39.2444 6.71375 39.0994 6.72504 38.988 6.7446C39.0162 6.67143 39.0381 6.59404 39.0381 6.51513C39.0381 6.42931 39.0162 6.34534 38.9609 6.2747C38.9183 6.2231 38.8564 6.16004 38.7768 6.13071C38.8045 6.06596 38.8704 6.00594 38.9563 5.96396ZM38.6713 6.44752C38.7384 6.59606 38.6715 6.72555 38.584 6.86043C38.5205 6.95907 38.4051 7.07726 38.4421 7.1855C38.4602 7.23862 38.5047 7.26323 38.546 7.27149C38.6284 7.28785 38.717 7.21973 38.8025 7.15364C38.8544 7.11368 38.908 7.0722 38.9543 7.05517C39.0487 7.02634 39.1618 7.05096 39.2107 7.13796C39.2916 7.29274 39.3197 7.56655 39.2456 7.72403C39.1443 7.91253 38.9933 7.83834 38.8089 7.74123C38.7187 7.69402 38.6557 7.64175 38.5647 7.63905C38.4401 7.63636 38.4022 7.84003 38.3976 7.94474C38.3823 8.30741 38.6309 8.65726 38.9985 8.82924C39.215 8.92686 39.4839 8.97357 39.7517 8.97239C40.0191 8.97121 40.2881 8.92686 40.5047 8.82924C40.8721 8.65726 41.1211 8.30741 41.1055 7.94474C41.1008 7.84003 41.0631 7.63636 40.9382 7.63905C40.8473 7.64175 40.7841 7.69402 40.6943 7.74123C40.5101 7.83834 40.3589 7.91253 40.2575 7.72403C40.1835 7.56655 40.2114 7.29274 40.2922 7.13796C40.3416 7.05096 40.4543 7.02634 40.5489 7.05517C40.5949 7.0722 40.6486 7.11368 40.7005 7.15364C40.7862 7.21973 40.8746 7.28785 40.9571 7.27149C40.9985 7.26323 41.0429 7.23862 41.0611 7.1855C41.098 7.07726 40.9827 6.95907 40.9191 6.86043C40.8317 6.72555 40.7648 6.59606 40.8317 6.44752C40.8849 6.37316 40.9748 6.32814 41.0784 6.32427L41.1315 6.32039C41.0804 6.04961 40.9999 5.71054 40.438 5.58122C40.2836 5.54615 40.0588 5.50046 39.7517 5.50046C39.4444 5.50046 39.2196 5.54615 39.0652 5.58122C38.5033 5.71054 38.4227 6.04961 38.3717 6.32039L38.4246 6.32427C38.5284 6.32814 38.6183 6.37316 38.6713 6.44752ZM31.9863 5.68002C32.7315 4.71847 34.2391 5.11435 35.2188 5.39154C35.8482 4.86009 36.8034 5.0314 37.5046 5.22108C37.5878 5.24367 37.6606 5.22108 37.6923 5.14993C37.7107 5.09463 37.6923 5.02348 37.6599 4.9992C37.4243 4.82654 37.271 4.54868 37.271 4.2344C37.271 3.80007 37.5632 3.4347 37.9613 3.32241V2.44634H37.3637V1.9471H37.9613V1.37013H38.4723V1.9471H39.0726V2.44634H38.4723V3.32123C38.8727 3.43234 39.167 3.79855 39.167 4.2344C39.167 4.54312 39.0189 4.8166 38.7903 4.98992C38.7581 5.01437 38.7195 5.08485 38.7457 5.15364C38.7772 5.22462 38.8638 5.24199 38.9474 5.22108C39.6551 5.04455 40.5804 4.86414 41.2097 5.39559C42.1893 5.1184 43.697 4.72251 44.4421 5.68407C44.6093 5.92265 44.7108 6.20961 44.728 6.51648L43.7609 10.5222H32.6683L31.7006 6.5126C31.7178 6.20574 31.8194 5.91877 31.9863 5.68002ZM44.0481 10.8933L45.1018 6.55037C45.1185 6.20017 44.971 5.78591 44.7588 5.49085C43.8583 4.3246 42.2248 4.72909 41.2545 5.00105C40.8443 4.72943 40.3215 4.60853 39.7257 4.70498C39.7284 4.70464 39.7296 4.70464 39.7296 4.70498C39.7296 4.70649 39.5616 4.73179 39.4229 4.75269C39.4909 4.59404 39.529 4.41936 39.529 4.23575C39.529 3.71088 39.2203 3.25918 38.775 3.04944V2.74831C38.8798 2.74831 39.3703 2.74831 39.3703 2.74831V1.64833C39.3703 1.64833 38.8798 1.64833 38.775 1.64833C38.775 1.55087 38.775 1.06613 38.775 1.06613H37.6625C37.6625 1.06613 37.6625 1.55087 37.6625 1.64833C37.5544 1.64833 37.0621 1.64833 37.0621 1.64833V2.74831C37.0621 2.74831 37.5544 2.74831 37.6625 2.74831V3.04843C37.2162 3.25767 36.9062 3.70987 36.9062 4.23575C36.9062 4.41936 36.944 4.59387 37.0123 4.75252C36.9625 4.74409 36.7733 4.71172 36.7028 4.7011C36.107 4.60449 35.5842 4.72538 35.174 4.99717C34.2037 4.72504 32.5702 4.32073 31.6696 5.48697C31.4577 5.78169 31.3102 6.19629 31.3268 6.54649L32.3813 10.8933H44.0481Z" fill="#231F20"/>
<path d="M40.195 8.12038C39.8781 7.9457 39.8638 7.4844 39.9202 7.17028C39.9551 6.98279 40.0532 6.85516 40.1397 6.79581C40.2588 6.7137 40.4036 6.725 40.515 6.74455C40.487 6.67138 40.465 6.59399 40.465 6.51508C40.465 6.42926 40.487 6.3453 40.5423 6.27465C40.5848 6.22306 40.6466 6.16 40.7264 6.13066C40.6986 6.06592 40.6328 6.00589 40.5469 5.96391C40.321 5.87573 40.036 5.82481 39.7517 5.82717C39.4672 5.8297 39.182 5.87573 38.9564 5.96391C38.8704 6.00589 38.8045 6.06592 38.7769 6.13066C38.8564 6.16 38.9183 6.22306 38.9609 6.27465C39.0162 6.3453 39.0381 6.42926 39.0381 6.51508C39.0381 6.59399 39.0162 6.67138 38.9881 6.74455C39.0995 6.725 39.2444 6.7137 39.3636 6.79581C39.4499 6.85516 39.5478 6.98279 39.5832 7.17028C39.6391 7.4844 39.6253 7.9457 39.3081 8.12038C39.0998 8.21968 38.9067 8.13269 38.7447 8.04569C38.7637 8.17905 38.9001 8.36334 38.9992 8.43516C39.2302 8.57814 39.4962 8.63732 39.7517 8.638C40.007 8.63867 40.273 8.57814 40.5041 8.43516C40.6032 8.36334 40.7395 8.17905 40.7586 8.04569C40.5966 8.13269 40.4034 8.21968 40.195 8.12038ZM37.1146 8.11903C36.7972 7.94435 36.7834 7.48305 36.8397 7.16894C36.8746 6.98145 36.9727 6.85381 37.059 6.79446C37.1785 6.71235 37.3232 6.72365 37.4345 6.74321C37.4062 6.6702 37.3846 6.59264 37.3846 6.51373C37.3846 6.42791 37.4062 6.34395 37.4616 6.2733C37.5044 6.22171 37.5663 6.15865 37.6455 6.12931C37.6178 6.06474 37.5524 6.00454 37.4662 5.96256C37.2403 5.87438 36.9553 5.82346 36.6708 5.82599C36.3865 5.82835 36.1017 5.87438 35.8755 5.96256C35.7897 6.00454 35.7238 6.06474 35.6965 6.12931C35.7759 6.15865 35.8377 6.22171 35.8802 6.2733C35.9355 6.34395 35.9576 6.42791 35.9576 6.51373C35.9576 6.59264 35.9358 6.6702 35.9075 6.74321C36.0187 6.72365 36.1635 6.71235 36.283 6.79446C36.3693 6.85381 36.4674 6.98145 36.5023 7.16894C36.5586 7.48305 36.5444 7.94435 36.2274 8.11903C36.0191 8.21834 35.8259 8.13134 35.6643 8.04433C35.683 8.1777 35.8195 8.36216 35.9183 8.43381C36.1494 8.57679 36.4158 8.63614 36.6708 8.63682C36.9263 8.63732 37.1926 8.57679 37.4233 8.43381C37.5224 8.36216 37.6588 8.1777 37.6778 8.04433C37.5162 8.13134 37.3229 8.21834 37.1146 8.11903ZM43.8393 6.12223C43.288 5.7808 42.5038 5.89917 41.8596 5.99325C41.8596 5.99325 41.8227 5.99864 41.7915 6.0032V6.08834C41.9435 6.12274 42.0548 6.26453 42.0969 6.44865C42.1026 6.47765 42.1052 6.50513 42.1052 6.53144C42.1052 6.61574 42.0902 6.66851 42.0602 6.73646C42.1942 6.70392 42.3448 6.69296 42.4736 6.81773C42.6664 7.02377 42.735 7.35356 42.6635 7.72449C42.6132 7.899 42.5098 8.03894 42.3853 8.10436C42.1947 8.19254 41.9901 8.13252 41.8389 8.03709C41.8712 8.2991 42.1628 8.47141 42.2596 8.52098C42.5151 8.64879 42.9206 8.66632 43.2452 8.56347C43.4535 8.49367 43.6928 8.28022 43.7614 8.06423C43.6267 8.13774 43.4628 8.21008 43.2876 8.16523C43.1157 8.10116 42.9986 7.94165 42.9337 7.68976C42.8771 7.30163 42.9817 6.95767 43.1862 6.81503C43.3011 6.74725 43.4189 6.72061 43.5612 6.74169C43.5349 6.66801 43.5349 6.61001 43.5297 6.53616C43.5266 6.49536 43.5352 6.45455 43.544 6.41459C43.5981 6.25695 43.706 6.17618 43.8393 6.12223ZM32.5829 6.12223C32.7162 6.17618 32.8243 6.25695 32.8782 6.41459C32.8871 6.45455 32.8957 6.49536 32.8927 6.53616C32.8875 6.61001 32.8875 6.66801 32.8612 6.74169C33.0032 6.72061 33.1212 6.74725 33.236 6.81503C33.4404 6.95767 33.5451 7.30163 33.4885 7.68976C33.4238 7.94165 33.3064 8.10116 33.1347 8.16523C32.9596 8.21008 32.7956 8.13774 32.6609 8.06423C32.7294 8.28022 32.9687 8.49367 33.1772 8.56347C33.5018 8.66632 33.9073 8.64879 34.1626 8.52098C34.2595 8.47141 34.5511 8.2991 34.5833 8.03709C34.4323 8.13252 34.2275 8.19254 34.0369 8.10436C33.9125 8.03894 33.8092 7.899 33.7588 7.72449C33.6873 7.35356 33.7558 7.02377 33.9488 6.81773C34.0775 6.69296 34.2282 6.70392 34.3622 6.73646C34.3322 6.66851 34.317 6.61574 34.317 6.53144C34.317 6.50513 34.3197 6.47765 34.3253 6.44865C34.3674 6.26453 34.4785 6.12274 34.6308 6.08834V6.0032C34.5995 5.99864 34.5626 5.99325 34.5626 5.99325C33.9184 5.89917 33.1344 5.7808 32.5829 6.12223ZM45.1018 6.55032C45.1185 6.20013 44.971 5.78586 44.7588 5.4908C43.8583 4.32456 42.2248 4.72904 41.2546 5.001C40.8443 4.72938 40.3215 4.60849 39.7258 4.70493C39.7284 4.70459 39.7296 4.70459 39.7296 4.70493C39.7296 4.70645 39.5616 4.73174 39.4229 4.75265C39.491 4.59399 39.5291 4.41932 39.5291 4.2357C39.5291 3.71083 39.2203 3.25914 38.775 3.04939V2.74827C38.8799 2.74827 39.3703 2.74827 39.3703 2.74827V1.64828C39.3703 1.64828 38.8799 1.64828 38.775 1.64828C38.775 1.55083 38.775 1.06609 38.775 1.06609H37.6625C37.6625 1.06609 37.6625 1.55083 37.6625 1.64828C37.5545 1.64828 37.0622 1.64828 37.0622 1.64828V2.74827C37.0622 2.74827 37.5545 2.74827 37.6625 2.74827V3.04838C37.2162 3.25762 36.9063 3.70982 36.9063 4.2357C36.9063 4.41932 36.944 4.59382 37.0123 4.75248C36.9626 4.74405 36.7733 4.71168 36.7028 4.70105C36.1071 4.60444 35.5842 4.72533 35.174 4.99713C34.2037 4.725 32.5703 4.32068 31.6696 5.48693C31.4577 5.78165 31.3103 6.19625 31.3268 6.54644L32.3813 10.8933H44.0481L45.1018 6.55032ZM44.4919 12.2558L44.4846 12.235L44.4757 12.2153C44.3742 11.9936 44.1059 11.755 43.757 11.755H32.6717C32.335 11.755 32.0653 11.9873 31.9576 12.2032L31.9448 12.2286L31.9357 12.2558C31.8688 12.4574 31.8402 12.7769 32.0759 13.1605L37.2873 22.5837C37.4343 22.8343 37.6799 23.2527 38.2032 23.2649L38.2124 23.2651L38.2215 23.2649C38.7519 23.2529 38.9965 22.8321 39.1429 22.581L44.3542 13.1581C44.5869 12.7746 44.5583 12.4562 44.4919 12.2558ZM44.8335 14.4333C44.7613 14.5786 44.6998 14.7275 44.6998 14.9079C44.6998 15.072 44.7507 15.2622 44.8908 15.4996L45.2894 16.1909L46.0475 17.5019C46.0862 17.5674 46.1118 17.6363 46.1247 17.6881L43.1623 17.6898C42.8041 17.6898 42.5228 17.7729 42.3143 18.1789L41.0407 20.4441C40.7058 20.9266 40.6365 21.4267 40.8507 21.8164C41.058 22.1932 41.4929 22.3962 42.0427 22.3729C42.9155 22.3396 43.3581 21.8085 43.3581 20.7935C43.3581 20.786 43.3578 20.7786 43.3578 20.771C43.4407 20.6481 43.6679 20.3114 43.8027 20.1113C44.1833 20.1113 47.5561 20.1113 47.5561 20.1113C48.2282 20.1113 48.6634 19.9459 48.887 19.6058C48.9952 19.4412 49.0367 19.2627 49.0367 19.0813C49.0367 18.7277 48.8794 18.3632 48.753 18.0703C48.7078 17.9693 48.7013 17.8673 48.7402 17.7855C48.7842 17.6938 48.9291 17.5611 49.4007 17.5611H50.6562V25.28H25.7792V17.5611H27.0098C27.4814 17.5611 27.6265 17.6938 27.6703 17.7855C27.7093 17.8673 27.7027 17.9693 27.6577 18.0703C27.5313 18.3632 27.3739 18.7277 27.3739 19.0813C27.3739 19.2627 27.4153 19.4412 27.5235 19.6058C27.7472 19.9459 28.1825 20.1113 28.8545 20.1113C28.8545 20.1113 32.2273 20.1113 32.6079 20.1113C32.7429 20.3114 32.9699 20.6481 33.0528 20.771C33.0528 20.7786 33.0525 20.786 33.0525 20.7935C33.0525 21.8085 33.495 22.3396 34.3679 22.3729C34.9177 22.3962 35.3525 22.1932 35.5598 21.8164C35.7742 21.4267 35.7048 20.9266 35.3699 20.4441L34.0962 18.1789C33.8879 17.7729 33.6066 17.6898 33.2485 17.6898L30.2859 17.6881C30.2989 17.6363 30.3243 17.5674 30.3631 17.5019L31.1213 16.1909L31.5199 15.4996C31.6598 15.2622 31.7109 15.072 31.7109 14.9079C31.7109 14.7275 31.6492 14.5786 31.5772 14.4333C31.4701 14.217 31.1003 13.5685 30.9663 13.3396L30.9606 13.3301C30.7922 13.0486 30.625 12.8617 30.3103 12.8455H25.7792V0.399251H50.6562V12.8455H46.1002C45.7856 12.8617 45.6182 13.0486 45.45 13.3301L45.4444 13.3396C45.3104 13.5685 44.9405 14.217 44.8335 14.4333ZM40.6825 14.4519C40.7102 14.54 40.6825 14.6243 40.6352 14.6948L38.5074 18.5589C38.4373 18.666 38.3621 18.8501 38.207 18.8501C38.0567 18.8501 37.975 18.6673 37.9109 18.5589L35.7739 14.6948C35.729 14.6243 35.7027 14.54 35.729 14.4519C35.7528 14.4111 35.8121 14.3517 35.8805 14.3517H40.5324C40.6074 14.3517 40.6654 14.4111 40.6825 14.4519Z" fill="#ED192D"/>
<path d="M0.193491 36.6488C0.60167 36.8689 1.16917 37.039 1.82765 37.039C2.32669 37.039 2.80327 36.936 2.80327 36.4618C2.80327 35.3593 0 36.0521 0 33.8931C0 32.464 1.39565 32.0741 2.58741 32.0741C3.15351 32.0741 3.71444 32.1573 4.11334 32.2927L4.0107 33.5205C3.60521 33.3297 3.14694 33.2465 2.69141 33.2465C2.29364 33.2465 1.62877 33.278 1.62877 33.8012C1.62877 34.7613 4.43592 34.1131 4.43592 36.2577C4.43592 37.7977 3.14694 38.2136 1.82765 38.2136C1.27582 38.2136 0.588569 38.1283 0.0593177 37.9607L0.193491 36.6488Z" fill="white"/>
<path d="M4.90601 33.6814H5.804V32.6866L7.30906 32.219V33.6814H8.3835V34.7533H7.30906V36.3841C7.30906 36.9228 7.44199 37.1929 7.92265 37.1929C8.07809 37.1929 8.23603 37.1612 8.39002 37.1349L8.44142 38.1283C8.15439 38.1649 7.86472 38.2136 7.48161 38.2136C6.11224 38.2136 5.78175 37.6104 5.78175 36.5593V34.7533H4.90601V33.6814Z" fill="white"/>
<path d="M10.9156 37.1929C11.4921 37.1929 11.8622 36.666 11.8622 36.1482C11.6647 36.1364 11.4409 36.1232 11.2144 36.1232C10.6916 36.1232 10.2861 36.2826 10.2861 36.7082C10.2861 37.0137 10.5613 37.1929 10.9156 37.1929ZM11.9689 38.1109C11.9596 37.8754 11.9346 37.646 11.9346 37.4154H11.9189C11.5686 37.9663 11.1446 38.2136 10.5165 38.2136C9.63954 38.2136 8.86005 37.7803 8.86005 36.8201C8.86005 35.4662 10.3309 35.3042 11.1446 35.3042C11.3922 35.3042 11.6647 35.333 11.8622 35.3659C11.8491 34.7613 11.4001 34.5979 10.8458 34.5979C10.3545 34.5979 9.86337 34.693 9.44085 34.9314L9.41049 33.8931C9.95305 33.6719 10.5271 33.5784 11.1802 33.5784C12.3099 33.5784 13.2842 34.0617 13.2842 35.4162V37.0651C13.2842 37.4154 13.3039 37.7606 13.3712 38.1109H11.9689Z" fill="white"/>
<path d="M13.8727 33.6814H14.7734V32.6866L16.2823 32.219V33.6814H17.3502V34.7533H16.2823V36.3841C16.2823 36.9228 16.4075 37.1929 16.8921 37.1929C17.0461 37.1929 17.2041 37.1612 17.3581 37.1349L17.4082 38.1283C17.1225 38.1649 16.8341 38.2136 16.4536 38.2136C15.0815 38.2136 14.7523 37.6104 14.7523 36.5593V34.7533H13.8727V33.6814Z" fill="white"/>
<path d="M21.0569 35.4752C21.0569 34.9628 20.8224 34.5478 20.2075 34.5478C19.6545 34.5478 19.3899 34.9628 19.357 35.4752H21.0569ZM19.3767 36.3435C19.4583 36.9547 19.9284 37.1929 20.6777 37.1929C21.0936 37.1929 21.5677 37.0993 22.0285 36.853V37.9344C21.5374 38.1283 20.9713 38.2136 20.4038 38.2136C18.9434 38.2136 17.8268 37.3536 17.8268 35.8901C17.8268 34.4307 18.8237 33.5784 20.2009 33.5784C21.8403 33.5784 22.4367 34.7441 22.4367 36.0614V36.3435H19.3767Z" fill="white"/>
<path d="M23.2334 33.6813H24.6291V34.4977H24.6461C24.9543 33.8588 25.564 33.5782 26.2605 33.5782C27.4705 33.5782 27.955 34.4306 27.955 35.3472V38.1108H26.4223V35.9677C26.4223 35.1355 26.1341 34.8534 25.7166 34.8534C25.0885 34.8534 24.7659 35.2896 24.7659 36.2431V38.1108H23.2334V33.6813Z" fill="white"/>
<path d="M28.8201 36.8886C29.1755 37.039 29.7088 37.1929 30.2565 37.1929C30.5726 37.1929 30.8808 37.1415 30.8808 36.8346C30.8808 36.0891 28.7003 36.6146 28.7003 35.0142C28.7003 33.9946 29.7088 33.5784 30.5884 33.5784C31.1164 33.5784 31.6537 33.6377 32.146 33.8355L32.0275 34.8972C31.7063 34.6996 31.2204 34.5979 30.836 34.5979C30.5028 34.5979 30.1315 34.6586 30.1315 34.9047C30.1315 35.5911 32.4095 35.0513 32.4095 36.7344C32.4095 37.9147 31.3455 38.2136 30.3422 38.2136C29.6562 38.2136 29.1848 38.1452 28.7331 38.0004L28.8201 36.8886Z" fill="white"/>
<path d="M35.3682 33.6813H37.0074L37.9278 36.8345H37.9436L38.8706 33.6813H40.3926L38.7507 38.1108H37.0074L35.3682 33.6813Z" fill="white"/>
<path d="M43.9714 35.4752C43.9714 34.9628 43.7319 34.5478 43.1209 34.5478C42.5678 34.5478 42.3045 34.9628 42.2717 35.4752H43.9714ZM42.286 36.3435C42.3716 36.9547 42.843 37.1929 43.5869 37.1929C44.0044 37.1929 44.481 37.0993 44.9393 36.853V37.9344C44.4468 38.1283 43.8846 38.2136 43.3183 38.2136C41.8529 38.2136 40.7429 37.3536 40.7429 35.8901C40.7429 34.4307 41.733 33.5784 43.1117 33.5784C44.7536 33.5784 45.35 34.7441 45.35 36.0614V36.3435H42.286Z" fill="white"/>
<path d="M48.3851 36.9359C48.9289 36.9359 49.3607 36.4787 49.3607 35.8005C49.3607 35.3041 49.0737 34.7532 48.3851 34.7532C47.8149 34.7532 47.5174 35.2563 47.5174 35.8586C47.5174 36.546 47.9229 36.9359 48.3851 36.9359ZM50.8407 37.5905C50.8407 39.4139 49.9612 39.9998 48.1744 39.9998C47.4397 39.9998 46.8406 39.8456 46.4784 39.7219L46.5601 38.5127C47.0209 38.7431 47.4121 38.8775 48.0546 38.8775C48.9367 38.8775 49.4108 38.4612 49.4108 37.5905V37.3535H49.4002C49.0264 37.8753 48.518 38.1109 47.9098 38.1109C46.6904 38.1109 45.9374 37.1928 45.9374 35.8848C45.9374 34.5664 46.5601 33.5783 47.9347 33.5783C48.593 33.5783 49.1132 33.9342 49.4384 34.4806H49.4568V33.6813H50.8407V37.5905Z" fill="white"/>
<path d="M51.4371 33.6813H53.0738L53.9969 36.8345H54.0153L54.9436 33.6813H56.4604L54.8224 38.1108H53.0738L51.4371 33.6813Z" fill="white"/>
<path d="M60.0446 35.4752C60.0446 34.9628 59.805 34.5478 59.19 34.5478C58.6343 34.5478 58.3776 34.9628 58.3368 35.4752H60.0446ZM58.3538 36.3435C58.4408 36.9547 58.9109 37.1929 59.6614 37.1929C60.0788 37.1929 60.5541 37.0993 61.0097 36.853V37.9344C60.5212 38.1283 59.959 38.2136 59.3875 38.2136C57.9273 38.2136 56.8082 37.3536 56.8082 35.8901C56.8082 34.4307 57.8074 33.5784 59.1847 33.5784C60.8228 33.5784 61.4192 34.7441 61.4192 36.0614V36.3435H58.3538Z" fill="white"/>
<path d="M62.1355 36.8886C62.4896 37.039 63.0137 37.1929 63.5719 37.1929C63.8854 37.1929 64.1908 37.1415 64.1908 36.8346C64.1908 36.0891 62.0143 36.6146 62.0143 35.0142C62.0143 33.9946 63.0137 33.5784 63.9024 33.5784C64.4305 33.5784 64.9624 33.6377 65.4589 33.8355L65.3337 34.8972C65.0124 34.6996 64.5319 34.5979 64.1473 34.5979C63.8156 34.5979 63.4376 34.6586 63.4376 34.9047C63.4376 35.5911 65.7183 35.0513 65.7183 36.7344C65.7183 37.9147 64.6583 38.2136 63.6537 38.2136C62.9637 38.2136 62.5002 38.1452 62.0471 38.0004L62.1355 36.8886Z" fill="white"/>
<path d="M69.484 35.4752C69.484 34.9628 69.2445 34.5478 68.6387 34.5478C68.0817 34.5478 67.8171 34.9628 67.7842 35.4752H69.484ZM67.804 36.3435C67.8896 36.9547 68.3569 37.1929 69.0995 37.1929C69.5183 37.1929 69.995 37.0993 70.4519 36.853V37.9344C69.9608 38.1283 69.4051 38.2136 68.8309 38.2136C67.3747 38.2136 66.2554 37.3536 66.2554 35.8901C66.2554 34.4307 67.2508 33.5784 68.6256 33.5784C70.2702 33.5784 70.8653 34.7441 70.8653 36.0614V36.3435H67.804Z" fill="white"/>
<path d="M71.6606 33.6813H73.0577V34.4977H73.0747C73.3802 33.8588 73.9912 33.5782 74.6916 33.5782C75.8977 33.5782 76.3784 34.4306 76.3784 35.3472V38.1108H74.8496V35.9677C74.8496 35.1355 74.5625 34.8534 74.1466 34.8534C73.5146 34.8534 73.1972 35.2896 73.1972 36.2431V38.1108H71.6606V33.6813Z" fill="white"/>
</g>
<defs>
<clipPath id="clip0_2718_7625">
<rect width="76.3783" height="40" fill="white"/>
</clipPath>
</defs>
</svg>
